<svg xmlns="http://www.w3.org/2000/svg" xmlns:xlink="http://www.w3.org/1999/xlink" width="500" zoomAndPan="magnify" viewBox="0 0 375 374.999991" height="500" preserveAspectRatio="xMidYMid meet" version="1.2"><defs><clipPath id="51f011128d"><path d="M 80.953125 189 L 94 189 L 94 203 L 80.953125 203 Z M 80.953125 189 "/></clipPath></defs><g id="34c27921d3"><rect x="0" width="375" y="0" height="374.999991" style="fill:#ffffff;fill-opacity:1;stroke:none;"/><rect x="0" width="375" y="0" height="374.999991" style="fill:#2a4486;fill-opacity:1;stroke:none;"/><path style=" stroke:none;fill-rule:nonzero;fill:#f4f5f7;fill-opacity:1;" d="M 232.984375 257.441406 C 231.226562 257.441406 229.804688 256.015625 229.804688 254.261719 L 229.804688 235.867188 C 229.804688 235.570312 229.851562 235.28125 229.925781 235.007812 L 213.898438 214.453125 C 213.898438 214.453125 213.898438 214.457031 213.898438 214.457031 L 195.503906 214.457031 C 193.746094 214.457031 192.324219 213.03125 192.324219 211.277344 L 192.324219 192.882812 C 192.324219 191.128906 193.746094 189.707031 195.503906 189.707031 L 213.898438 189.707031 C 214.21875 189.707031 214.527344 189.753906 214.820312 189.84375 L 226.996094 173.933594 C 226.964844 173.75 226.941406 173.566406 226.941406 173.375 L 226.941406 154.980469 C 226.941406 154.925781 226.949219 154.875 226.949219 154.824219 L 214.207031 136.628906 L 198.828125 136.628906 C 197.34375 136.628906 196.140625 135.425781 196.140625 133.941406 L 196.140625 118.378906 C 196.140625 116.894531 197.34375 115.691406 198.828125 115.691406 L 214.386719 115.691406 C 214.769531 115.691406 215.132812 115.773438 215.464844 115.917969 L 227.253906 106.023438 C 224.339844 80.050781 185.210938 82.949219 185.210938 109.832031 L 185.210938 287.507812 C 188.535156 308.316406 214.992188 309.460938 223.550781 289.824219 C 239.4375 296.300781 258.898438 280.40625 255.957031 263.945312 L 250.371094 257.441406 Z M 198.207031 158.039062 C 198.207031 156.285156 199.628906 154.863281 201.382812 154.863281 L 211.636719 154.863281 C 213.394531 154.863281 214.816406 156.285156 214.816406 158.039062 L 214.816406 168.292969 C 214.816406 170.046875 213.394531 171.472656 211.636719 171.472656 L 201.382812 171.472656 C 199.628906 171.472656 198.207031 170.046875 198.207031 168.292969 Z M 204.089844 281.929688 C 204.089844 283.683594 202.667969 285.105469 200.914062 285.105469 L 195.503906 285.105469 C 193.746094 285.105469 192.324219 283.683594 192.324219 281.929688 L 192.324219 276.519531 C 192.324219 274.765625 193.746094 273.339844 195.503906 273.339844 L 200.914062 273.339844 C 202.667969 273.339844 204.089844 274.765625 204.089844 276.519531 Z M 232.824219 272.527344 C 232.824219 274.28125 231.402344 275.707031 229.648438 275.707031 L 224.238281 275.707031 C 222.484375 275.707031 221.0625 274.28125 221.0625 272.527344 L 221.0625 267.117188 C 221.0625 266.816406 221.105469 266.527344 221.183594 266.253906 L 211.757812 255.601562 C 211.71875 255.601562 211.679688 255.605469 211.636719 255.605469 L 201.382812 255.605469 C 199.628906 255.605469 198.207031 254.183594 198.207031 252.429688 L 198.207031 242.175781 C 198.207031 240.421875 199.628906 239 201.382812 239 L 211.636719 239 C 213.394531 239 214.816406 240.421875 214.816406 242.175781 L 214.816406 252.429688 C 214.816406 252.867188 214.726562 253.28125 214.566406 253.660156 L 223.703125 263.988281 C 223.875 263.960938 224.054688 263.941406 224.238281 263.941406 L 229.648438 263.941406 C 231.402344 263.941406 232.824219 265.363281 232.824219 267.117188 Z M 232.824219 272.527344 "/><path style=" stroke:none;fill-rule:nonzero;fill:#f4f5f7;fill-opacity:1;" d="M 269.328125 220.929688 L 263.917969 220.929688 C 262.164062 220.929688 260.742188 219.507812 260.742188 217.753906 L 260.742188 212.339844 C 260.742188 210.585938 262.164062 209.164062 263.917969 209.164062 L 269.328125 209.164062 C 271.082031 209.164062 272.503906 210.585938 272.503906 212.339844 L 272.503906 217.511719 L 278.21875 221.179688 C 294.039062 212.949219 291.371094 187.082031 276.285156 180.964844 L 255.863281 196.011719 L 255.863281 205.988281 C 255.863281 207.742188 254.4375 209.164062 252.683594 209.164062 L 242.429688 209.164062 C 240.675781 209.164062 239.253906 207.742188 239.253906 205.988281 L 239.253906 195.734375 C 239.253906 193.980469 240.675781 192.554688 242.429688 192.554688 L 252.683594 192.554688 C 253.261719 192.554688 253.796875 192.710938 254.265625 192.980469 L 277.371094 175.957031 C 282.460938 166.238281 280.785156 146.566406 261.230469 143.011719 L 251.554688 154.058594 C 251.644531 154.347656 251.691406 154.660156 251.691406 154.980469 L 251.691406 173.375 C 251.691406 175.128906 250.269531 176.550781 248.515625 176.550781 L 230.121094 176.550781 C 229.847656 176.550781 229.585938 176.511719 229.335938 176.449219 L 217.050781 192.503906 C 217.0625 192.628906 217.074219 192.753906 217.074219 192.882812 L 217.074219 211.277344 C 217.074219 211.761719 216.964844 212.214844 216.769531 212.625 L 232.453125 232.738281 C 232.625 232.710938 232.800781 232.691406 232.984375 232.691406 L 251.378906 232.691406 C 253.132812 232.691406 254.554688 234.113281 254.554688 235.867188 L 254.554688 254.261719 C 254.554688 255.027344 254.285156 255.726562 253.835938 256.273438 L 257.472656 260.503906 C 272.71875 261.980469 288.835938 241.992188 279.253906 225.871094 L 270.902344 220.511719 C 270.4375 220.773438 269.902344 220.929688 269.328125 220.929688 Z M 269.328125 220.929688 "/><path style=" stroke:none;fill-rule:nonzero;fill:#f4f5f7;fill-opacity:1;" d="M 217.074219 133.941406 C 217.074219 134.191406 217.035156 134.4375 216.972656 134.667969 L 229.09375 151.976562 C 229.414062 151.863281 229.761719 151.800781 230.121094 151.800781 L 248.515625 151.800781 C 248.675781 151.800781 248.835938 151.820312 248.992188 151.84375 L 260.710938 138.457031 C 265.496094 121.058594 247.703125 103.496094 229.632812 108.449219 L 217.074219 118.992188 Z M 234.546875 127.207031 C 234.546875 125.453125 235.96875 124.03125 237.726562 124.03125 L 243.136719 124.03125 C 244.890625 124.03125 246.3125 125.453125 246.3125 127.207031 L 246.3125 132.621094 C 246.3125 134.375 244.890625 135.796875 243.136719 135.796875 L 237.726562 135.796875 C 235.96875 135.796875 234.546875 134.375 234.546875 132.621094 Z M 234.546875 127.207031 "/><path style=" stroke:none;fill-rule:nonzero;fill:#f4f5f7;fill-opacity:1;" d="M 90.300781 194.078125 L 185.5 194.078125 L 185.5 197.8125 L 90.300781 197.8125 Z M 90.300781 194.078125 "/><path style=" stroke:none;fill-rule:nonzero;fill:#f4f5f7;fill-opacity:1;" d="M 185.5 179.316406 L 133.375 179.316406 L 121.566406 158.867188 L 94.5625 158.867188 L 94.5625 155.132812 L 123.722656 155.132812 L 135.527344 175.582031 L 185.5 175.582031 Z M 185.5 179.316406 "/><path style=" stroke:none;fill-rule:nonzero;fill:#f4f5f7;fill-opacity:1;" d="M 123.722656 236.753906 L 94.5625 236.753906 L 94.5625 233.019531 L 121.566406 233.019531 L 133.375 212.570312 L 185.5 212.570312 L 185.5 216.304688 L 135.527344 216.304688 Z M 123.722656 236.753906 "/><path style=" stroke:none;fill-rule:nonzero;fill:#f4f5f7;fill-opacity:1;" d="M 185.5 151.578125 L 156.257812 151.578125 L 139.933594 123.304688 L 115.191406 123.304688 L 115.191406 119.570312 L 142.089844 119.570312 L 158.414062 147.84375 L 185.5 147.84375 Z M 185.5 151.578125 "/><path style=" stroke:none;fill-rule:nonzero;fill:#f4f5f7;fill-opacity:1;" d="M 142.089844 272.316406 L 115.191406 272.316406 L 115.191406 268.582031 L 139.933594 268.582031 L 156.257812 240.308594 L 185.5 240.308594 L 185.5 244.042969 L 158.414062 244.042969 Z M 142.089844 272.316406 "/><path style=" stroke:none;fill-rule:nonzero;fill:#f4f5f7;fill-opacity:1;" d="M 91.589844 160.910156 L 91.589844 153.085938 C 91.589844 151.847656 92.597656 150.84375 93.835938 150.84375 L 101.65625 150.84375 C 102.898438 150.84375 103.902344 151.847656 103.902344 153.085938 L 103.902344 160.910156 C 103.902344 162.148438 102.898438 163.15625 101.65625 163.15625 L 93.835938 163.15625 C 92.597656 163.15625 91.589844 162.148438 91.589844 160.910156 Z M 91.589844 160.910156 "/><path style=" stroke:none;fill-rule:nonzero;fill:#f4f5f7;fill-opacity:1;" d="M 91.59375 238.800781 L 91.59375 230.976562 C 91.59375 229.738281 92.597656 228.734375 93.835938 228.734375 L 101.660156 228.734375 C 102.898438 228.734375 103.902344 229.738281 103.902344 230.976562 L 103.902344 238.800781 C 103.902344 240.039062 102.898438 241.042969 101.660156 241.042969 L 93.835938 241.042969 C 92.597656 241.042969 91.59375 240.039062 91.59375 238.800781 Z M 91.59375 238.800781 "/><g clip-rule="nonzero" clip-path="url(#51f011128d)"><path style=" stroke:none;fill-rule:nonzero;fill:#f4f5f7;fill-opacity:1;" d="M 80.957031 199.855469 L 80.957031 192.03125 C 80.957031 190.792969 81.960938 189.789062 83.203125 189.789062 L 91.023438 189.789062 C 92.265625 189.789062 93.269531 190.792969 93.269531 192.03125 L 93.269531 199.855469 C 93.269531 201.09375 92.265625 202.097656 91.023438 202.097656 L 83.203125 202.097656 C 81.960938 202.097656 80.957031 201.09375 80.957031 199.855469 Z M 80.957031 199.855469 "/></g><path style=" stroke:none;fill-rule:nonzero;fill:#f4f5f7;fill-opacity:1;" d="M 112.222656 125.351562 L 112.222656 117.527344 C 112.222656 116.289062 113.226562 115.285156 114.464844 115.285156 L 122.289062 115.285156 C 123.527344 115.285156 124.53125 116.289062 124.53125 117.527344 L 124.53125 125.351562 C 124.53125 126.589844 123.527344 127.59375 122.289062 127.59375 L 114.464844 127.59375 C 113.226562 127.59375 112.222656 126.589844 112.222656 125.351562 Z M 112.222656 125.351562 "/><path style=" stroke:none;fill-rule:nonzero;fill:#f4f5f7;fill-opacity:1;" d="M 112.222656 274.359375 L 112.222656 266.535156 C 112.222656 265.296875 113.226562 264.292969 114.464844 264.292969 L 122.289062 264.292969 C 123.527344 264.292969 124.53125 265.296875 124.53125 266.535156 L 124.53125 274.359375 C 124.53125 275.597656 123.527344 276.601562 122.289062 276.601562 L 114.464844 276.601562 C 113.226562 276.601562 112.222656 275.597656 112.222656 274.359375 Z M 112.222656 274.359375 "/></g></svg>